<svg xmlns="http://www.w3.org/2000/svg" width="64" height="64" viewBox="0 0 64 64">
  <rect width="64" height="64" rx="16" fill="#F4532E"/>
  <g fill="none" stroke="#fff" stroke-width="3.4" stroke-linecap="round" stroke-linejoin="round">
    <path d="M23 17 L27 18 L29.5 26 L25 29 A22 22 0 0 0 35 39 L38 34.5 L46 37 L47 41 C47 43.5 45 45.5 42.5 45.5 A31 31 0 0 1 18.5 21.5 C18.5 19 20.5 17 23 17 Z"/>
  </g>
  <g fill="none" stroke="#FFD9CE" stroke-width="2.6" stroke-linecap="round" opacity="0.9">
    <path d="M44 20 a10 10 0 0 1 0 12"/>
    <path d="M48 16 a16 16 0 0 1 0 20"/>
  </g>
</svg>
